<svg width="0" height="0" style="position:absolute"><symbol viewBox="0 0 768 768" id="mediacat-icons--add"><path d="M320 320V64h128v256h256v128H448v256H320V448H64V320h256z" fill-rule="evenodd"/></symbol><symbol viewBox="0 0 768 768" id="mediacat-icons--arrow"><path d="M169 678.195l67.882 67.882 362.04-362.038L236.88 22 169 89.882 463.156 384.04 169 678.194z" fill-rule="evenodd"/></symbol><symbol viewBox="0 0 768 768" id="mediacat-icons--crop"><path d="M608 207.255V545h64v64h-64v63h-64v-63H160V224H96v-64h64V96h64v64h340.745l60.56-60.558 45.253 45.254L608 207.256zm-64 64V545H270.255L544 271.255zM500.745 224H224v276.745L500.745 224z" fill-rule="evenodd"/></symbol><symbol viewBox="0 0 768 768" id="mediacat-icons--dash"><path d="M64 352h640v64H64z" fill-rule="evenodd"/></symbol><symbol viewBox="0 0 768 768" id="mediacat-icons--delete"><path d="M480 128h160v64H128v-64h160V64h192v64zm128 544v32H160V288h64v352h64V288h64v352h64V288h64v352h64V288H128v-64h512v64h-32v384zM320 96v32h128V96H320z" fill-rule="evenodd"/></symbol><symbol viewBox="0 0 768 768" id="mediacat-icons--detail"><path d="M64 64h640v640H64z" fill-rule="evenodd"/></symbol><symbol viewBox="0 0 768 768" id="mediacat-icons--dot"><circle cx="384" cy="384" r="128" fill-rule="evenodd"/></symbol><symbol viewBox="0 0 768 768" id="mediacat-icons--down-arrow"><path d="M89.882 169L22 236.882l362.04 362.04 362.037-362.04L678.195 169 384.04 463.156 89.88 169z" fill-rule="evenodd"/></symbol><symbol viewBox="0 0 768 768" id="mediacat-icons--empty-star"><path d="M384 512.075l-188.09 134.81 70.087-220.544L79.662 289.117l231.408-1.494L384 68l72.93 219.62 231.408 1.495L502.003 426.34l70.088 220.545L384 512.075zm1-48.2l-121.084 86.783 45.12-141.976-119.954-88.34 148.97-.96L385 178l46.948 141.38 148.97.962-119.954 88.34 45.12 141.976L385 463.874z" fill-rule="evenodd"/></symbol><symbol viewBox="0 0 768 768" id="mediacat-icons--filmstrip"><path d="M64 64v448h640V64H64zm0 480v160h192V544H64zm224 0v160h192V544H288zm224 0v160h192V544H512z" fill-rule="evenodd"/></symbol><symbol viewBox="0 0 768 768" id="mediacat-icons--grid"><path d="M64 513v192h192V513H64zm0-225v192h192V288H64zm0-224v192h192V64H64zm224 449v192h192V513H288zm0-225v192h192V288H288zm0-224v192h192V64H288zm224 449v192h192V513H512zm0-225v192h192V288H512zm0-224v192h192V64H512z" fill-rule="evenodd"/></symbol><symbol viewBox="0 0 768 768" id="mediacat-icons--hairline-delete"><path d="M480 192h97v32H193v-32h95v-64h192v64zm33 96h-65v320h65V288zm32 0h32v-32H193v32h30v352h322V288zm-129 0h-64v320h64V288zm-96 0h-65v320h65V288zm0-128v32h128v-32H320z" fill-rule="evenodd"/></symbol><symbol viewBox="0 0 768 768" id="mediacat-icons--hairline-down-arrow"><path d="M394.843 519.843l-11.314 11.313L112 259.626 134.627 237 383.53 485.902 632.43 237l22.628 22.627-260.215 260.216z" fill-rule="evenodd"/></symbol><symbol viewBox="0 0 768 768" id="mediacat-icons--hairline-image"><path d="M608 424.637V224H160v215.022L287.393 311.63l-.707-.708 22.628-22.628L422.45 401.43l80.82-80.817.353.353.353-.353L608 424.637zm0 46.67V544H160v-59.723l150.02-150.02 135.06 135.056 22.628-22.628-21.92-21.92 57.837-57.838L608 471.307zM128 192v384h512V192H128zm416 128c17.673 0 32-14.327 32-32 0-17.673-14.327-32-32-32-17.673 0-32 14.327-32 32 0 17.673 14.327 32 32 32z" fill-rule="evenodd"/></symbol><symbol viewBox="0 0 768 768" id="mediacat-icons--hairline-tick"><path d="M293.02 530.41L632.43 191l22.628 22.627-339.41 339.412.706.705-22.628 22.627L112 394.647l22.627-22.628L293.02 530.41z" fill-rule="evenodd"/></symbol><symbol viewBox="0 0 768 768" id="mediacat-icons--hairline-up-arrow"><path d="M372.215 248.314L383.53 237l271.528 271.53-22.627 22.626-248.9-248.9-248.902 248.9L112 508.53l260.215-260.216z" fill-rule="evenodd"/></symbol><symbol viewBox="0 0 768 768" id="mediacat-icons--left-arrow"><path d="M599 678.195l-67.882 67.882-362.04-362.038L531.12 22 599 89.882 304.844 384.04 599 678.194z" fill-rule="evenodd"/></symbol><symbol viewBox="0 0 768 768" id="mediacat-icons--reject"><path d="M495.25 540.504C463.862 562.854 425.466 576 384 576c-106.04 0-192-85.96-192-192 0-41.467 13.145-79.863 35.496-111.25L495.25 540.505zm45.254-45.255C562.854 463.86 576 425.465 576 384c0-106.04-85.96-192-192-192-41.467 0-79.863 13.145-111.25 35.496L540.505 495.25zM384 640c141.385 0 256-114.615 256-256S525.385 128 384 128 128 242.615 128 384s114.615 256 256 256z" fill-rule="evenodd"/></symbol><symbol viewBox="0 0 768 768" id="mediacat-icons--right-arrow"><path d="M169 678.195l67.882 67.882 362.04-362.038L236.88 22 169 89.882 463.156 384.04 169 678.194z" fill-rule="evenodd"/></symbol><symbol viewBox="0 0 768 768" id="mediacat-icons--star"><g fill-rule="evenodd"><path d="M384 512.075l-188.09 134.81 70.087-220.544L79.662 289.117l231.408-1.494L384 68l72.93 219.62 231.408 1.495L502.003 426.34l70.088 220.545"/><path d="M384 512.075l-188.09 134.81 70.087-220.544L79.662 289.117l231.408-1.494L384 68l72.93 219.62 231.408 1.495L502.003 426.34l70.088 220.545"/></g></symbol><symbol viewBox="0 0 768 768" id="mediacat-icons--tick"><path d="M239.63 533.253L103.863 397.49l67.883-67.883L307.51 465.37l293.45-293.448 67.883 67.882-362.04 362.04-67.88-67.884.706-.707z" fill-rule="evenodd"/></symbol><symbol viewBox="0 0 768 768" id="mediacat-icons--up-arrow"><path d="M89.882 598.92L22 531.04 384.04 169l362.037 362.04-67.882 67.88L384.04 304.766 89.88 598.92z" fill-rule="evenodd"/></symbol><symbol viewBox="0 0 768 768" id="mediacat-icons--upload"><path d="M416 320h96L384 98 256 320h96v194h64V320zm288 128v192H64V448h64v128h512V448h64z" fill-rule="evenodd"/></symbol></svg>