<?xml version="1.0" encoding="UTF-8" standalone="no"?>
<svg width="736px" height="736px" viewBox="0 0 736 736" version="1.1" xmlns="http://www.w3.org/2000/svg" xmlns:xlink="http://www.w3.org/1999/xlink" xmlns:sketch="http://www.bohemiancoding.com/sketch/ns">
    <!-- Generator: Sketch 3.0.4 (8053) - http://www.bohemiancoding.com/sketch -->
    <title>grid</title>
    <desc>Created with Sketch.</desc>
    <defs></defs>
    <g id="Page-1" stroke="none" stroke-width="1" fill="none" fill-rule="evenodd" sketch:type="MSPage">
        <g id="grid" sketch:type="MSArtboardGroup" fill="#000000">
            <g id="Group" sketch:type="MSLayerGroup" transform="translate(0.000000, 544.000000)">
                <rect id="Rectangle-9" sketch:type="MSShapeGroup" x="0" y="0" width="160" height="128"></rect>
                <rect id="Rectangle-8" sketch:type="MSShapeGroup" x="192" y="0" width="160" height="128"></rect>
                <rect id="Rectangle-7" sketch:type="MSShapeGroup" x="384" y="0" width="160" height="128"></rect>
                <rect id="Rectangle-6" sketch:type="MSShapeGroup" x="576" y="0" width="160" height="128"></rect>
            </g>
            <g id="Group-2" sketch:type="MSLayerGroup" transform="translate(0.000000, 384.000000)">
                <rect id="Rectangle-9" sketch:type="MSShapeGroup" x="0" y="0" width="160" height="128"></rect>
                <rect id="Rectangle-8" sketch:type="MSShapeGroup" x="192" y="0" width="160" height="128"></rect>
                <rect id="Rectangle-7" sketch:type="MSShapeGroup" x="384" y="0" width="160" height="128"></rect>
                <rect id="Rectangle-6" sketch:type="MSShapeGroup" x="576" y="0" width="160" height="128"></rect>
            </g>
            <g id="Group-3" sketch:type="MSLayerGroup" transform="translate(0.000000, 224.000000)">
                <rect id="Rectangle-9" sketch:type="MSShapeGroup" x="0" y="0" width="160" height="128"></rect>
                <rect id="Rectangle-8" sketch:type="MSShapeGroup" x="192" y="0" width="160" height="128"></rect>
                <rect id="Rectangle-7" sketch:type="MSShapeGroup" x="384" y="0" width="160" height="128"></rect>
                <rect id="Rectangle-6" sketch:type="MSShapeGroup" x="576" y="0" width="160" height="128"></rect>
            </g>
            <g id="Group-4" sketch:type="MSLayerGroup" transform="translate(0.000000, 64.000000)">
                <rect id="Rectangle-9" sketch:type="MSShapeGroup" x="0" y="0" width="160" height="128"></rect>
                <rect id="Rectangle-8" sketch:type="MSShapeGroup" x="192" y="0" width="160" height="128"></rect>
                <rect id="Rectangle-7" sketch:type="MSShapeGroup" x="384" y="0" width="160" height="128"></rect>
                <rect id="Rectangle-6" sketch:type="MSShapeGroup" x="576" y="0" width="160" height="128"></rect>
            </g>
        </g>
    </g>
</svg>