<?xml version="1.0" encoding="UTF-8" standalone="no"?>
<svg width="768px" height="768px" viewBox="0 0 768 768" version="1.1" xmlns="http://www.w3.org/2000/svg" xmlns:xlink="http://www.w3.org/1999/xlink" xmlns:sketch="http://www.bohemiancoding.com/sketch/ns">
    <!-- Generator: bin/sketchtool 1.3 (252) - http://www.bohemiancoding.com/sketch -->
    <title>delete</title>
    <desc>Created with bin/sketchtool.</desc>
    <defs></defs>
    <g id="Page-1" stroke="none" stroke-width="1" fill="none" fill-rule="evenodd" sketch:type="MSPage">
        <g id="delete" sketch:type="MSArtboardGroup" fill="#000000">
            <path d="M480,128 L640,128 L640,192 L128,192 L128,128 L288,128 L288,64 L480,64 L480,128 Z M608,672 L608,704 L192.5,704 L160,704 L160,288 L224,288 L224,640 L288,640 L288,288 L352,288 L352,640 L416,640 L416,640 L416,288 L480,288 L480,640 L544,640 L544,288 L128,288 L128,224 L640,224 L640,288 L608,288 L608,672 Z M320,96 L320,128 L448,128 L448,96 L320,96 Z" id="Rectangle-23" sketch:type="MSShapeGroup"></path>
        </g>
    </g>
</svg>